<?xml version="1.0" standalone="no"?>
<!DOCTYPE svg PUBLIC "-//W3C//DTD SVG 1.1//EN" "http://www.w3.org/Graphics/SVG/1.1/DTD/svg11.dtd" >
<svg xmlns="http://www.w3.org/2000/svg">
<metadata>
<json>
{
	"fontFamily": "ios-32-native",
	"majorVersion": 1,
	"minorVersion": 0,
	"fontURL": "http://www.pixellove.com",
	"designerURL": "http://www.pixellove.com",
	"licenseURL": "http://www.pixellove.com/licenses",
	"license": "Royalty-free",
	"copyright": "Pixel Love Ltd",
	"version": "Version 1.0",
	"fontId": "ios-32-native",
	"psName": "ios-32-native",
	"subFamily": "Regular",
	"fullName": "ios-32-native",
	"description": "Font generated by IcoMoon."
}
</json>
</metadata>
<defs>
<font id="ios-32-native" horiz-adv-x="1024">
<font-face units-per-em="1024" ascent="960" descent="-64" />
<missing-glyph horiz-adv-x="1024" />
<glyph unicode="&#x20;" d="" horiz-adv-x="512" />
<glyph unicode="&#xe600;" d="M896 768h-768v-480h271.664l-180.688-192h586.048l-180.688 192h271.664v480zM293.024 128l218.976 232.656 218.976-232.656h-437.952zM864 320h-269.776l-82.224 87.344-82.208-87.344h-269.792v416h704v-416z" data-tags="airdrop" />
<glyph unicode="&#xe601;" d="M512 31.968c-194.096 0-352 157.904-352 352s157.904 352 352 352 352-157.904 352-352-157.904-352-352-352zM512 703.968c-176.448 0-320-143.552-320-320 0-176.432 143.552-320 320-320 176.432 0 320 143.568 320 320 0 176.448-143.568 320-320 320zM544 351.968h-192v32h160v256h32v-288zM271.216 149.84l22.624-22.624-90.528-90.528-22.624 22.624 90.528 90.528zM752.784 149.84l90.528-90.528-22.624-22.624-90.528 90.528 22.624 22.624zM139.248 564.544l-9.184 17.6c-11.984 22.976-18.064 47.824-18.064 73.856 0 88.224 71.776 160 160 160 35.936 0 69.904-11.664 98.24-33.712l15.664-12.208-246.656-205.536zM272 784c-70.576 0-128-57.424-128-128 0-13.952 2.192-27.488 6.496-40.416l183.168 152.624c-18.768 10.368-39.76 15.792-61.664 15.792zM884.768 564.544l-246.672 205.536 15.664 12.208c28.32 22.048 62.288 33.712 98.24 33.712 88.224 0 160-71.776 160-160 0-25.632-6.256-51.152-18.064-73.84l-9.168-17.616zM690.336 768.208l183.136-152.608c4.336 12.928 6.528 26.464 6.528 40.4 0 70.576-57.424 128-128 128-21.904 0-42.912-5.408-61.664-15.792z" data-tags="alarms" />
<glyph unicode="&#xe602;" d="M928 64h-864v640h864v-640zM96 96h800v576h-800v-576zM128 768h736v-32h-736v32zM192 832h608v-32h-608v32z" data-tags="albums" />
<glyph unicode="&#xe603;" d="M832 800h-256c-33.376 0-62.8-17.136-80-43.056-17.2 25.92-46.624 43.056-80 43.056h-256c-35.296 0-64-28.72-64-64.016v-512c0-35.296 28.704-63.984 64-63.984h256c35.296 0 64-28.736 64-64l32 0.016c0 35.264 28.704 63.984 64 63.984h256c35.296 0 64 28.688 64 63.984v512c0 35.296-28.704 64.016-64 64.016zM416 192h-256c-17.648 0-32 14.336-32 31.984v512c0 17.648 14.352 32.016 32 32.016h256c35.296 0 64-28.72 64-64.016v-536.496c-16.992 15.232-39.44 24.512-64 24.512zM864 223.984c0-17.648-14.336-31.984-32-31.984h-256c-24.56 0-47.008-9.28-64-24.512v536.496c0 35.296 28.704 64.016 64 64.016h256c17.664 0 32-14.368 32-32.016v-512z" data-tags="bookmarks" />
<glyph unicode="&#xe604;" d="M736 64h-608v608h608v-608zM160 96h544v544h-544v-544zM896 224h-128v32h96v544h-544v-95.888h-32v127.888h608v-608z" data-tags="browsers" />
<glyph unicode="&#xe605;" d="M896 432c0 220.56-179.44 400-400 400s-400-179.44-400-400c0-111.952 46.304-213.264 120.672-285.936l-0.784-0.368 18.272-15.824c0.672-0.576 1.408-1.056 2.080-1.648 7.952-6.832 16.16-13.344 24.64-19.536 1.184-0.88 2.368-1.68 3.568-2.528 8.832-6.304 17.872-12.272 27.216-17.84 0.56-0.336 1.12-0.624 1.68-0.976 29.808-17.6 62.080-31.408 96.176-40.848 0.32-0.096 0.624-0.192 0.96-0.288 10.816-2.976 21.792-5.456 32.96-7.52 0.944-0.176 1.888-0.336 2.848-0.48 10.736-1.904 21.616-3.44 32.608-4.432 1.216-0.128 2.416-0.192 3.632-0.288 11.040-0.896 22.176-1.488 33.472-1.488 11.28 0 22.416 0.592 33.456 1.504 1.2 0.128 2.4 0.192 3.616 0.288 11.008 1.008 21.872 2.528 32.624 4.432 0.928 0.16 1.84 0.336 2.784 0.48 11.152 2.048 22.192 4.544 33.008 7.52 0.256 0.064 0.496 0.16 0.752 0.224 34.128 9.424 66.384 23.216 96.224 40.784 0.56 0.336 1.12 0.64 1.664 0.976 9.36 5.6 18.432 11.568 27.28 17.84 1.152 0.848 2.32 1.664 3.472 2.464 8.512 6.208 16.784 12.736 24.784 19.584 0.624 0.528 1.312 0.992 1.936 1.552l18.096 15.664-0.784 0.368c74.624 72.656 121.088 174.128 121.088 286.32zM733.6 166.16l-0.128-0.112c-7.184 3.408-23.84 10.928-46.464 18.752-20.032 6.336-38.352 11.216-56.064 14.96l-17.552 3.664c-9.472 1.68-15.648 2.576-15.648 2.576s0 0 0.032 0l-0.032 0.016c-0.88 2.72-8.16 26.112-10.688 52.624-2.592 27.552 1.456 43.632 1.616 44.224l0.080 0.064c0.688 0.368 17.12 9.344 23.008 19.728l0.88 1.728c5.248 12.752 9.088 73.008 9.12 73.632l22 10.656 14.288 61.168 0.4 27.488-14.688 16.704c0.432 2 8 37.28 8 75.984 0 31.344-5.76 60.464-8.272 71.536l-1.008 4.48-3.2 3.264c-10.832 10.96-39.040 37.824-67.52 50.72-34.928 15.808-69.68 16-70.032 16-0.208 0-2.288-0.032-5.76-0.24-3.392 0.192-5.472 0.224-5.744 0.224-0.336 0-35.056-0.192-69.968-16-28.448-12.896-56.688-39.76-67.52-50.72l-3.216-3.264-1.008-4.48c-2.48-11.056-8.272-40.192-8.272-71.536 0-39.712 7.936-75.728 8-75.968l-14.688-16.72v-23.84l14.688-64.816 22-10.656c0.032-0.608 3.824-60.848 9.44-74.192l0.848-1.68c5.712-10.048 22.624-19.152 22.784-19.248 0.32-1.184 4.16-17.184 1.648-44.192-2.56-26.672-9.888-50.144-10.704-52.704-1.696-0.272-7.504-1.104-16.080-2.672l-17.12-3.6c-17.68-3.696-36.176-8.656-56.928-15.2-23.536-8.208-41.36-16.448-46.656-18.992l-0.192 0.16-9.856-4.784c-73.344 67.36-119.424 163.936-119.424 271.104 0 202.928 165.072 368 368 368 202.944 0 368-165.072 368-368 0-107.248-46.144-203.904-119.6-271.232l-10.8 5.392z" data-tags="contacts" />
<glyph unicode="&#xe606;" d="M832 0h-608v608h224v-32h-192v-544h544v544h-192v32h224v-608zM644.688 475.312l-100.688-100.688v489.376h-32v-489.376l-100.688 100.688-22.624-22.624 139.312-139.312 139.312 139.312-22.624 22.624z" data-tags="download" />
<glyph unicode="&#xe607;" d="M799.056 21.376l-271.056 198.784-271.072-198.784 108.224 324.624-270.032 198h325.344l107.536 322.592 107.536-322.592h325.344l-270-198 108.176-324.624zM528 259.84l208.944-153.216-83.824 251.376 210 154h-250.656l-84.464 253.408-84.464-253.408h-250.656l210-154-83.792-251.376 208.912 153.216z" data-tags="favorites" />
<glyph unicode="&#xe608;" d="M96 768v-672h800v672h-800zM256 736h480v-288h-480v288zM128 736h96v-96h-96v96zM128 608h96v-96h-96v96zM128 480h96v-96h-96v96zM128 352h96v-96h-96v96zM224 128h-96v96h96v-96zM736 128h-480v288h480v-288zM864 128h-96v96h96v-96zM864 256h-96v96h96v-96zM864 384h-96v96h96v-96zM864 512h-96v96h96v-96zM768 640v96h96v-96h-96z" data-tags="films" />
<glyph unicode="&#xe609;" d="M832 824.72l-23.872-13.488c-0.768-0.416-77.456-43.232-152.128-43.232-38.608 0-99.264 16.16-157.92 31.776-62.192 16.576-120.928 32.224-162.080 32.224-80.848 0-131.872-20.32-134-21.168l-10-4.048v-774.784h32v356.080c15.696 8.272 58.272 26.576 126.672 26.576 26.992 0 77.808-13.632 131.616-28.048 63.424-17.008 129.024-34.608 172.384-34.608 81.856 0 163.328 29.024 166.752 30.288l10.576 3.792v438.64zM800 408.88c-24.064-7.6-85.456-24.88-145.328-24.88-39.136 0-105.552 17.776-164.096 33.536-55.904 14.992-108.688 29.12-139.904 29.12-59.808 0-102.144-12.8-126.672-23.168v361.056c17.648 5.424 57.632 15.456 112 15.456 36.976 0 96.384-15.824 153.84-31.136 60.656-16.16 123.376-32.864 166.16-32.864 57.12 0 113.264 21.392 144 35.456v-362.576z" data-tags="flags" />
<glyph unicode="&#xe60a;" d="M208 608c-61.76 0-112 50.256-112 112s50.24 112 112 112 112-50.256 112-112-50.24-112-112-112zM208 800c-44.112 0-80-35.888-80-80s35.888-80 80-80 80 35.888 80 80-35.888 80-80 80zM496 608c-61.76 0-112 50.256-112 112s50.24 112 112 112c61.744 0 112-50.256 112-112s-50.256-112-112-112zM496 800c-44.112 0-80-35.888-80-80s35.888-80 80-80 80 35.888 80 80-35.888 80-80 80zM784 608c-61.744 0-112 50.256-112 112s50.256 112 112 112 112-50.256 112-112-50.256-112-112-112zM784 800c-44.112 0-80-35.888-80-80s35.888-80 80-80 80 35.888 80 80-35.888 80-80 80zM208 320c-61.76 0-112 50.256-112 112s50.24 112 112 112 112-50.256 112-112c0-61.744-50.24-112-112-112zM208 512c-44.112 0-80-35.888-80-80s35.888-80 80-80 80 35.888 80 80-35.888 80-80 80zM496 320c-61.76 0-112 50.256-112 112s50.24 112 112 112c61.744 0 112-50.256 112-112s-50.256-112-112-112zM496 512c-44.112 0-80-35.888-80-80s35.888-80 80-80 80 35.888 80 80-35.888 80-80 80zM784 320c-61.744 0-112 50.256-112 112s50.256 112 112 112 112-50.256 112-112c0-61.744-50.256-112-112-112zM784 512c-44.112 0-80-35.888-80-80s35.888-80 80-80 80 35.888 80 80-35.888 80-80 80zM208 32c-61.76 0-112 50.256-112 112s50.24 112 112 112 112-50.256 112-112-50.24-112-112-112zM208 224c-44.112 0-80-35.888-80-80s35.888-80 80-80 80 35.888 80 80-35.888 80-80 80zM496 32c-61.76 0-112 50.256-112 112s50.24 112 112 112c61.744 0 112-50.256 112-112s-50.256-112-112-112zM496 224c-44.112 0-80-35.888-80-80s35.888-80 80-80 80 35.888 80 80-35.888 80-80 80zM784 32c-61.744 0-112 50.256-112 112s50.256 112 112 112 112-50.256 112-112-50.256-112-112-112zM784 224c-44.112 0-80-35.888-80-80s35.888-80 80-80 80 35.888 80 80-35.888 80-80 80z" data-tags="keypad" />
<glyph unicode="&#xe60b;" d="M224 223.968c-123.52 0-224 100.464-224 224 0 123.52 100.48 224 224 224s224-100.48 224-224c0-123.536-100.48-224-224-224zM224 639.968c-105.872 0-192-86.128-192-192s86.128-192 192-192 192 86.128 192 192-86.128 192-192 192zM768 223.968c-123.536 0-224 100.464-224 224 0 123.52 100.464 224 224 224s224-100.48 224-224c0-123.536-100.464-224-224-224zM768 639.968c-105.872 0-192-86.128-192-192s86.128-192 192-192 192 86.128 192 192-86.128 192-192 192zM224 255.968h544v-32h-544v32z" data-tags="messages" />
<glyph unicode="&#xe60c;" d="M176 352c-44.112 0-80 35.888-80 80s35.888 80 80 80 80-35.888 80-80-35.888-80-80-80zM176 480c-26.464 0-48-21.536-48-48s21.536-48 48-48 48 21.536 48 48c0 26.464-21.536 48-48 48zM496 352c-44.112 0-80 35.888-80 80s35.888 80 80 80 80-35.888 80-80-35.888-80-80-80zM496 480c-26.464 0-48-21.536-48-48s21.536-48 48-48c26.464 0 48 21.536 48 48s-21.536 48-48 48zM816 352c-44.112 0-80 35.888-80 80s35.888 80 80 80 80-35.888 80-80-35.888-80-80-80zM816 480c-26.464 0-48-21.536-48-48s21.536-48 48-48 48 21.536 48 48c0 26.464-21.536 48-48 48z" data-tags="more" />
<glyph unicode="&#xe60d;" d="M496 64c-220.56 0-400 179.44-400 400s179.44 400 400 400 400-179.44 400-400-179.44-400-400-400zM496 832c-202.928 0-368-165.072-368-368 0-202.944 165.072-368 368-368 202.944 0 368 165.056 368 368 0 202.928-165.056 368-368 368zM671.904 639.904l-426.448-191.904h234.544v-234.544l191.904 426.448z" data-tags="near" />
<glyph unicode="&#xe60e;" d="M736 64h-608v608h464v-32h-432v-544h544v432h32v-464zM788.688 699.552l-340.688-340.912-25.376 25.392 340.688 340.912-22.624 22.64-356.688-356.912v-70.672h70.624l356.688 356.912-22.624 22.64zM854.624 758.912l-32 32.016c-6.016 6.016-14.288 9.056-22.512 9.072-8.336 0.032-16.656-3.008-22.736-9.072l-22.816-22.832 77.184-77.232 11.504 11.504 0.064-0.064 11.312 11.328c6.048 6.032 9.376 13.808 9.376 22.368 0 8.544-3.328 16.848-9.376 22.912z" data-tags="new" />
<glyph unicode="&#xe60f;" d="M363.312 132.688l-22.624 22.624 292.688 292.688-292.688 292.688 22.624 22.624 315.312-315.312z" data-tags="next" />
<glyph unicode="&#xe610;" d="M800 672v128h-736v-576h128v-128h736v576h-128zM96 256v512h672v-96h-576v-416h-96zM896 128h-672v512h672v-512z" data-tags="photos" />
<glyph unicode="&#xe611;" d="M864 64h-736v736h736v-736zM160 96h672v672h-672v-672zM512 608h-288v-32h288v32zM512 512h-288v-32h288v32zM512 416h-288v-32h288v32zM576 707.52v-363.52c0-22.064-17.936-40-40-40h-40v-0.304c-44.784-3.312-80-34.208-80-71.696 0-41.712 33.648-72 80-72 62.8 0 112 31.632 112 72v340.48l160-32v128.64l-192 38.4z" data-tags="playlists" />
<glyph unicode="&#xe612;" d="M628.688 132.688l-315.312 315.312 315.312 315.312 22.624-22.624-292.688-292.688 292.688-292.688z" data-tags="previous" />
<glyph unicode="&#xe613;" d="M1024 448h-32.816c-8.208 107.216-97.904 192-207.184 192-97.664 0-179.632-67.76-201.84-158.688-17.536 18.832-42.48 30.688-70.16 30.688-27.696 0-52.624-11.856-70.16-30.688-22.224 90.928-104.176 158.688-201.84 158.688-109.28 0-198.976-84.784-207.184-192h-32.816v-32h32.816c8.208-107.216 97.904-192 207.184-192s198.976 84.784 207.184 192h0.816c0 35.296 28.704 64 64 64s64-28.704 64-64h0.816c8.208-107.216 97.904-192 207.184-192s198.976 84.784 207.184 192h32.816v32zM240 256c-97.040 0-176 78.976-176 176 0 97.040 78.96 176 176 176s176-78.96 176-176c0-97.024-78.96-176-176-176zM784 256c-97.024 0-176 78.976-176 176 0 97.040 78.976 176 176 176s176-78.96 176-176c0-97.024-78.976-176-176-176z" data-tags="reading" />
<glyph unicode="&#xe614;" d="M512 63.968c-211.728 0-384 172.288-384 384 0 211.728 172.272 384 384 384 211.712 0 384-172.272 384-384 0-211.712-172.288-384-384-384zM512 799.968c-194.096 0-352-157.904-352-352s157.904-352 352-352 352 157.904 352 352-157.904 352-352 352zM320 415.968v32l192 0.032v256h32v-288l-224-0.032z" data-tags="recents" />
<glyph unicode="&#xe615;" d="M896 125.184l-29.088 41.648c-135.344 193.568-220.688 200.88-354.912 201.152v-174.272l-396.4 270.288 396.4 270.288v-174.416c265.408-4.544 384-123.472 384-383.872v-50.816zM480 400h16c133.36 0 232.32-0.016 366.368-173.008-14.288 212.992-123.536 301.008-366.368 301.008h-16v145.712l-307.6-209.712 307.6-209.712v145.712z" data-tags="reply" />
<glyph unicode="&#xe616;" d="M864 108.656l-228.048 228.032c42.48 52.304 68.048 118.848 68.048 191.312 0 167.632-136.368 304-304 304s-304-136.368-304-304c0-167.632 136.368-304 304-304 72.464 0 139.008 25.568 191.312 68.048l228.016-228.048 44.672 44.656zM128 528c0 149.984 122.016 272 272 272s272-122.016 272-272-122.016-272-272-272-272 122.016-272 272z" data-tags="search" />
<glyph unicode="&#xe617;" d="M496 32c-202.912 0-368 165.056-368 368 0 202.928 165.088 368 368 368s368-165.072 368-368c0-202.944-165.088-368-368-368zM496 736c-185.28 0-336-150.736-336-336s150.72-336 336-336 336 150.736 336 336-150.72 336-336 336zM496 352c-26.464 0-48 21.536-48 48s21.536 48 48 48c26.464 0 48-21.536 48-48s-21.536-48-48-48zM496 416c-8.816 0-16-7.168-16-16s7.184-16 16-16 16 7.168 16 16-7.184 16-16 16zM480 672h32v-368h-32v368zM464 848h64v-112h-64v112zM786.688 774.608l67.872-67.888-33.936-33.936-67.872 67.888 33.936 33.936zM786.736 729.376l22.64-22.624-33.952-33.952-22.624 22.624 33.936 33.952z" data-tags="stop_watch" />
<glyph unicode="&#xe618;" d="M960 192h-928v576h928v-576zM64 224h864v512h-864v-512zM240 160h512v-32h-512v32z" data-tags="television" />
<glyph unicode="&#xe619;" d="M496 32c-220.56 0-400 179.44-400 400 0 106.848 41.6 207.296 117.136 282.864l22.624-22.624c-69.488-69.52-107.76-161.936-107.76-260.24 0-202.944 165.072-368 368-368 202.944 0 368 165.056 368 368 0 197.552-156.464 359.248-352 367.664v-159.664h-32v192h16c220.56 0 400-179.44 400-400s-179.44-400-400-400zM518.624 454.624c12.496-12.48 12.496-32.768 0-45.248-12.496-12.496-32.768-12.496-45.248 0l-112.192 157.44 157.44-112.192zM496 384c-12.832 0-24.896 5.008-33.952 14.064l-1.696 2.032-167.52 235.072 237.104-169.216c9.072-9.056 14.064-21.12 14.064-33.952s-5.008-24.912-14.064-33.952-21.12-14.048-33.936-14.048zM485.504 419.92c6.096-5.328 16-5.008 21.808 0.768 3.024 3.024 4.688 7.024 4.688 11.312 0 3.904-1.392 7.6-3.92 10.496l-78.528 55.952 55.952-78.528z" data-tags="timer" />
<glyph unicode="&#xe61a;" d="M221.072 637.376l-61.072 44.784-61.072-44.784 24.208 72.624-59.952 44.032h73.264l23.584 70.56 23.472-70.56h73.312l-59.952-44.032 24.208-72.624zM221.072 349.376l-61.072 44.784-61.072-44.784 24.208 72.624-59.952 44.032h73.264l23.584 70.56 23.472-70.56h73.312l-59.952-44.032 24.208-72.624zM221.072 61.376l-61.072 44.784-61.072-44.784 24.208 72.624-59.952 44.032h73.264l23.584 70.56 23.472-70.56h73.312l-59.952-44.032 24.208-72.624zM320 160h608v-32h-608v32zM320 448h608v-32h-608v32zM320 736h608v-32h-608v32z" data-tags="top_charts" />
<glyph unicode="&#xe61b;" d="M192 736h608v-32h-608v32zM640 720h-32v48c0 17.648-14.336 32-32 32h-160c-17.648 0-32-14.352-32-32v-48h-32v48c0 35.296 28.704 64 64 64h160c35.296 0 64-28.704 64-64v-48zM400 640.528l15.984-512-31.984-0.992-15.984 512 31.984 0.992zM592 640.48l31.968-1.008-16.032-512-31.968 1.008 16.032 512zM480 640h32v-512h-32v512zM656.016 31.968h-320.016c-33.808 0.048-59.488 25.008-63.888 62.144l-48.064 624.656 31.904 2.464 48-624c1.872-15.728 11.344-33.232 32.064-33.264h319.984c19.408 0.016 30.256 17.568 32.112 33.84l47.936 623.424 31.904-2.464-48-624c-4.176-36.592-31.008-62.768-63.936-62.8z" data-tags="trash" />
<glyph unicode="&#xe61c;" d="M800 0h-608v608h224v-32h-192v-544h544v544h-192v32h224v-608zM635.312 731.312l-139.312 139.312-139.312-139.312 22.624-22.624 100.688 100.688v-489.376h32v489.376l100.688-100.688 22.624 22.624z" data-tags="upload" />
<glyph unicode="&#xe61d;" d="M496 64c-202.912 0-368 165.056-368 368 0 202.928 165.088 368 368 368s368-165.072 368-368c0-202.944-165.088-368-368-368zM496 768c-185.28 0-336-150.736-336-336s150.72-336 336-336 336 150.736 336 336-150.72 336-336 336zM480 784h32v-704h-32v704zM144 448h704v-32h-704v32zM496 63.968c-107.664 0-192 161.664-192 368 0 206.352 84.336 368 192 368s192-161.648 192-368c0-206.336-84.336-368-192-368zM496 767.968c-86.72 0-160-153.872-160-336s73.28-336 160-336 160 153.872 160 336-73.28 336-160 336zM496 592c-102.608 0-201.040 22.128-270.096 60.688l15.616 27.936c64.416-35.984 157.168-56.624 254.48-56.624s190.064 20.64 254.496 56.624l15.616-27.936c-69.088-38.56-167.504-60.688-270.112-60.688zM750.496 183.376c-64.48 35.984-157.248 56.624-254.496 56.624s-190.016-20.64-254.496-56.624l-15.6 27.936c69.104 38.56 167.552 60.688 270.096 60.688s201.008-22.128 270.096-60.688l-15.6-27.936z" data-tags="world_times" />
</font>
</defs>
</svg>
